<svg width="168" height="40" viewBox="0 0 168 40" fill="none" xmlns="http://www.w3.org/2000/svg">
<path d="M18.9204 5.03024C17.8296 5.03024 16.9937 6.16936 16.4126 8.44758C15.8214 10.7258 15.1587 13.9919 14.4248 18.2561C13.9864 20.8367 13.65 23.0242 13.4155 24.8085C13.1811 26.5927 12.9568 28.246 12.7631 29.7782C12.5694 31.3105 12.3859 32.8327 12.2126 34.3548C12.0393 35.8871 11.8252 37.6613 11.5602 39.6774H5.48447C5.74951 37.0968 6.01456 34.6673 6.3 32.3891C6.58544 30.1109 6.85048 27.9637 7.11553 25.9375C5.9432 25.4637 4.81165 25.2319 3.72087 25.2319C2.50777 25.2319 1.26408 25.5746 0 26.2601V19.9395C0.825728 19.2137 1.63107 18.6996 2.41602 18.4274C3.20097 18.1452 3.95534 18.004 4.69951 18.004C5.79029 18.004 6.96262 18.2863 8.2267 18.8407C8.53252 16.9052 8.81796 15.1815 9.07281 13.6794C9.33786 12.1774 9.57233 10.9274 9.78641 9.93952C10.0005 8.78024 10.2248 7.77218 10.4388 6.90524C11.2238 4.45565 12.3757 2.69153 13.8947 1.6129C15.4136 0.534274 16.9631 0 18.5228 0C19.6951 0 20.8267 0.0907258 21.9175 0.262097C23.0083 0.433468 23.9461 0.78629 24.7515 1.33065C25.5568 1.86492 26.199 2.62097 26.6782 3.58871C27.1573 4.55645 27.3917 5.83669 27.3917 7.42944C27.3917 7.77218 27.4019 8.28629 27.4223 8.98186C27.4427 9.66734 27.4529 10.4032 27.4529 11.1794C27.4529 12.0363 27.4325 12.8931 27.3917 13.7298C27.351 14.5665 27.2388 15.2016 27.0655 15.6351H20.8063C20.8879 14.8186 20.9796 14.1331 21.0714 13.5686C21.1529 13.0141 21.2345 12.5202 21.2956 12.0867C21.3568 11.6532 21.4078 11.2399 21.4282 10.8266C21.4485 10.4133 21.4587 9.95968 21.4587 9.43548C21.4587 8.96169 21.4485 8.46774 21.4282 7.95363C21.4078 7.43952 21.3058 6.96573 21.1325 6.53226C20.9592 6.09879 20.7044 5.74597 20.3782 5.46371C20.0519 5.18145 19.5626 5.04032 18.9102 5.04032L18.9204 5.03024ZM14.6184 22.2581C15.6583 22.8629 16.6573 23.377 17.6155 23.8105C18.5738 24.244 19.5524 24.4556 20.5515 24.4556C21.6422 24.4556 22.7228 24.123 23.8136 23.4577C24.9044 22.7923 26.0359 21.5726 27.2083 19.8085V27.3589C25.9442 28.8609 24.7413 29.9194 23.5893 30.5242C22.4374 31.129 21.2956 31.4315 20.1641 31.4315C19.0325 31.4315 18.0029 31.2298 16.9325 30.8165C15.8621 30.4032 14.7714 29.8992 13.6398 29.3044L14.6184 22.2681V22.2581Z" fill="#F1F5F9"/>
<path d="M47.2807 39.6774V31.5524C46.5365 34.5161 45.5477 36.6734 44.3142 38.004C43.0705 39.3347 41.6535 40 40.0428 40C37.4331 40 35.4656 39.0524 34.1404 37.1573C32.8152 35.2621 32.1322 32.6008 32.0812 29.1532C32.0812 27.4798 32.2035 25.7258 32.438 23.8911C32.6724 22.0665 33.0088 20.2117 33.4472 18.3468C33.8855 16.4718 34.3851 14.627 34.9457 12.8024C35.5064 10.9778 36.0977 9.22379 36.7093 7.54032C36.0569 8.52822 35.3637 9.77822 34.6195 11.2802C33.8754 12.7823 33.1516 14.3952 32.438 16.1189C31.7244 17.8427 31.0006 19.6068 30.287 21.4113C29.5734 23.2157 28.8802 24.9193 28.2278 26.5121V16.1895C28.4419 15.2823 28.8496 13.9617 29.4307 12.2177C30.022 10.4738 30.7661 8.71975 31.6836 6.95564C32.6011 5.19153 33.6511 3.65927 34.8438 2.3387C36.0365 1.02822 37.372 0.372978 38.8603 0.372978C40.3487 0.372978 41.3681 0.594752 41.8268 1.04838C42.2855 1.50201 42.5098 2.10685 42.5098 2.88306C42.5098 3.26612 42.469 3.74999 42.3773 4.33467C42.2855 4.91935 42.1734 5.53427 42.0205 6.19959C41.8676 6.86491 41.6943 7.57056 41.5006 8.32661C41.3069 9.08266 41.1234 9.79838 40.9501 10.4839C40.9501 10.5645 40.9399 10.625 40.9195 10.6452C40.8991 10.6653 40.8889 10.7258 40.8889 10.8064C40.5423 12.1371 40.1957 13.5685 39.8491 15.0907C39.5025 16.6129 39.1865 18.1653 38.9011 19.7581C38.6156 21.3508 38.3812 22.9335 38.1875 24.5262C37.9938 26.1189 37.8919 27.621 37.8919 29.0323C37.8919 30.4435 38.055 31.5423 38.3812 32.4496C38.7074 33.3468 39.2783 33.8004 40.1142 33.8004C41.419 33.8004 42.4588 32.7923 43.2438 30.7762C44.0288 28.7601 44.6506 26.1492 45.0991 22.9536C45.5579 19.7581 45.8637 16.1895 46.0166 12.2681C46.1695 8.33669 46.2409 4.46572 46.2409 0.645156H52.704V32.6411H55.12V39.6774H47.2909H47.2807Z" fill="#F1F5F9"/>
<path d="M65.7831 10C65.7831 11.4617 66.4457 13.0847 67.771 14.869C69.0962 16.6532 71.135 18.5786 73.8671 20.6452C79.5248 24.8589 82.3486 28.9919 82.3486 33.0343C82.3486 34.3246 82.1244 35.4032 81.6656 36.2601C81.2069 37.1169 80.6156 37.8327 79.8714 38.3871C79.1273 38.9516 78.271 39.3448 77.2923 39.5766C76.3137 39.8085 75.2841 39.9294 74.1933 39.9294C70.6661 39.9294 67.4244 39.0524 64.468 37.2883C61.5117 35.5242 58.902 33.2258 56.6389 30.3831V18.7702C57.1996 20.3629 58.1273 21.9859 59.4117 23.6391C60.6962 25.2923 62.1234 26.8246 63.6831 28.2157C65.253 29.6169 66.8229 30.7661 68.4132 31.6633C70.0035 32.5706 71.4001 33.0444 72.6234 33.0847C74.4074 33.0444 75.2943 32.3992 75.2943 31.1492C75.2943 30.5948 75.0802 29.9698 74.6418 29.2742C74.2035 28.5887 73.653 27.8528 72.9802 27.0766C72.3074 26.3004 71.553 25.504 70.7273 24.6875C69.9015 23.871 69.0758 23.0948 68.2501 22.369L67.1389 21.3407C66.0991 20.3932 65.0899 19.4052 64.1418 18.377C63.1836 17.3488 62.3273 16.2802 61.5627 15.1815C60.7981 14.0827 60.1967 12.9436 59.7379 11.7641C59.2792 10.5847 59.0549 9.38508 59.0549 8.18549C59.0549 7.10686 59.2588 6.09879 59.6768 5.15121C60.0947 4.20363 60.6758 3.37702 61.4404 2.67137C62.2049 1.96573 63.0918 1.40121 64.1112 0.997987C65.1307 0.584681 66.252 0.383068 67.4753 0.383068C68.4744 0.383068 69.4836 0.554439 70.5132 0.897181C71.5326 1.23992 72.501 1.70363 73.4185 2.28831C74.336 2.87299 75.1719 3.54839 75.9263 4.3246C76.6909 5.10081 77.3025 5.9375 77.7816 6.84476V0.645165H83.521V16.3911L77.9753 19.3548V18.3871C77.7103 17.3085 77.2923 16.1391 76.701 14.869C76.1098 13.5988 75.3962 12.4093 74.5501 11.2903C73.704 10.1714 72.7559 9.23387 71.7161 8.48791C70.6763 7.73186 69.5447 7.35887 68.3214 7.35887C67.4957 7.35887 66.8637 7.64113 66.4253 8.19557C65.987 8.76008 65.7729 9.35484 65.7729 10H65.7831Z" fill="#F1F5F9"/>
<path d="M101.503 19.1633C101.503 18.5585 101.045 18.2561 100.137 18.2561C99.1382 18.2561 97.9455 18.5383 96.5489 19.0928C95.1523 19.6472 93.7149 20.3629 92.2062 21.2198C90.6974 22.0766 89.2703 23.0242 87.9042 24.0625C86.5382 25.0907 85.3965 26.0585 84.479 26.9657V19.7379C85.9572 18.2359 87.4353 16.9859 88.9135 15.998C90.3916 15.0101 91.829 14.2238 93.2154 13.6391C94.6018 13.0545 95.9169 12.6512 97.13 12.4093C98.3431 12.1774 99.4542 12.0565 100.453 12.0565C101.717 12.0565 102.879 12.2077 103.94 12.5101C105 12.8125 105.928 13.2359 106.712 13.7702C107.497 14.3045 108.109 14.9295 108.537 15.6452C108.965 16.3609 109.19 17.117 109.19 17.9335C109.19 18.9617 108.812 19.9799 108.048 20.9678C107.283 21.9557 106.315 22.9234 105.143 23.871C103.97 24.8186 102.716 25.746 101.391 26.6432C100.066 27.5504 98.812 28.4073 97.6397 29.2238C96.4673 30.0403 95.4989 30.8065 94.7343 31.5121C93.9698 32.2178 93.5926 32.8528 93.5926 33.4174C93.5926 33.7198 93.8576 33.871 94.3775 33.871C95.9474 33.6996 97.5479 33.2762 99.2096 32.6109C100.861 31.9456 102.472 31.1089 104.042 30.0907C105.612 29.0827 107.039 27.9637 108.344 26.7339C109.648 25.5041 110.709 24.2238 111.545 22.8932V31.2803C110.372 32.3085 109.118 33.3367 107.793 34.3448C106.468 35.3528 105.071 36.2803 103.613 37.117C102.156 37.9536 100.627 38.6291 99.0159 39.1532C97.4052 39.6674 95.7334 39.9295 93.9902 39.9295C92.8586 39.9295 91.7984 39.8286 90.7892 39.6371C89.7902 39.4456 88.8931 39.1432 88.1183 38.7299C87.3436 38.3165 86.7115 37.7823 86.263 37.117C85.8042 36.4516 85.58 35.625 85.58 34.6371C85.58 33.7299 85.9673 32.7823 86.7523 31.7641C87.5373 30.7561 88.5159 29.7581 89.6882 28.7601C90.8606 27.7722 92.145 26.7944 93.5416 25.8266C94.928 24.8589 96.2125 23.9516 97.395 23.1149C98.5775 22.2782 99.546 21.5121 100.331 20.8266C101.116 20.1411 101.503 19.5766 101.503 19.1532V19.1633ZM93.1542 5.4234C93.1542 4.09276 93.6334 2.95365 94.5916 2.00607C95.5499 1.05848 96.7018 0.584694 98.0474 0.584694C99.3931 0.584694 100.545 1.05848 101.503 2.00607C102.462 2.95365 102.941 4.09276 102.941 5.4234C102.941 6.75405 102.462 7.89316 101.503 8.84074C100.545 9.78832 99.3931 10.2621 98.0474 10.2621C96.7018 10.2621 95.5499 9.78832 94.5916 8.84074C93.6334 7.89316 93.1542 6.75405 93.1542 5.4234Z" fill="#F1F5F9"/>
<path d="M128.039 0.383068C130.169 0.383068 132.004 0.846778 133.554 1.7742C135.093 2.70162 136.357 3.93146 137.336 5.48388C138.315 7.03629 139.028 8.81049 139.487 10.8065C139.946 12.8024 140.17 14.8589 140.17 16.9657C140.17 19.4153 139.874 21.9859 139.293 24.6774C138.702 27.369 137.774 29.8387 136.49 32.0968C135.205 34.3548 133.574 36.2198 131.597 37.6815C129.619 39.1432 127.234 39.879 124.451 39.879C122.32 39.879 120.495 39.4153 118.966 38.4879C117.447 37.5605 116.193 36.3307 115.215 34.7782C114.236 33.2258 113.522 31.4617 113.064 29.4859C112.605 27.5101 112.381 25.4839 112.381 23.4173C112.381 20.9677 112.676 18.3871 113.257 15.6754C113.849 12.9637 114.766 10.4839 116.03 8.22581C117.294 5.96775 118.915 4.09275 120.893 2.61089C122.87 1.12904 125.256 0.383068 128.039 0.383068ZM132.8 18.7097C132.8 17.248 132.698 15.7661 132.504 14.254C132.31 12.752 131.974 11.371 131.495 10.121C131.016 8.87097 130.353 7.83267 129.507 6.99597C128.661 6.15928 127.58 5.69557 126.275 5.60484C124.97 5.81654 123.89 6.5625 123.044 7.83267C122.198 9.10283 121.525 10.5645 121.025 12.2177C120.526 13.871 120.179 15.5746 119.985 17.3186C119.792 19.0625 119.69 20.5141 119.69 21.6734C119.69 23.0948 119.802 24.5565 120.016 26.0585C120.23 27.5605 120.597 28.9415 121.097 30.1915C121.596 31.4415 122.259 32.4798 123.084 33.3165C123.91 34.1532 124.95 34.6169 126.214 34.7077C127.478 34.4456 128.528 33.6895 129.374 32.4194C130.22 31.1492 130.893 29.6875 131.393 28.0343C131.892 26.3811 132.249 24.6976 132.473 23.004C132.687 21.3105 132.8 19.879 132.8 18.7097Z" fill="#F1F5F9"/>
<path d="M156.654 31.996C156.654 32.2581 156.654 32.5202 156.684 32.8024C156.705 33.0847 156.827 33.3266 157.041 33.5484C157.52 33.4173 158.101 32.8327 158.805 31.7742C159.498 30.7258 160.232 29.3952 160.986 27.8024C161.751 26.2097 162.505 24.4456 163.27 22.5101C164.034 20.5746 164.738 18.629 165.39 16.6734C166.043 14.7177 166.593 12.8629 167.052 11.129C167.511 9.38508 167.827 7.91331 168 6.71371V23.6794C168 24.4556 167.847 25.3932 167.541 26.4819C167.235 27.5807 166.797 28.7298 166.236 29.9294C165.666 31.1391 165.003 32.3387 164.249 33.5383C163.484 34.748 162.658 35.8165 161.771 36.7641C160.874 37.7117 159.936 38.4778 158.937 39.0524C157.938 39.6371 156.939 39.9194 155.94 39.9194C154.197 39.9194 152.892 39.4758 152.026 38.5988C151.159 37.7218 150.721 36.119 150.721 33.8004C150.721 31.744 150.874 29.7077 151.18 27.7117C151.485 25.7157 151.822 23.7097 152.189 21.6936C152.556 19.6774 152.913 17.6613 153.269 15.6452C153.616 13.629 153.861 11.5927 153.983 9.52621V9.26412C153.983 8.44758 153.84 7.79234 153.555 7.29839C153.269 6.80444 152.851 6.55242 152.281 6.55242C151.414 6.55242 150.751 6.99597 150.293 7.87299C149.834 8.75 149.589 9.96976 149.538 11.5121L146.47 39.6472H140.792L144.451 0.645165H150.843L150.578 2.73186C150.792 2.25807 151.241 1.74396 151.914 1.1996C152.586 0.655246 153.422 0.383068 154.421 0.383068C156.552 0.383068 158.071 1.18952 158.988 2.80242C159.906 4.41533 160.354 6.5121 160.354 9.09275C160.354 10.8972 160.161 12.8528 159.763 14.9597C159.376 17.0665 158.948 19.1532 158.489 21.2198C158.03 23.2863 157.612 25.2621 157.215 27.1573C156.827 29.0524 156.623 30.6653 156.623 31.996H156.654Z" fill="#F1F5F9"/>
</svg>
